<?xml version="1.0" encoding="UTF-8"?>
<svg width="24" height="24" viewBox="0 0 24 24" fill="none" xmlns="http://www.w3.org/2000/svg">
  <path d="M17 3C17.5304 3 18.0391 3.21071 18.4142 3.58579C18.7893 3.96086 19 4.46957 19 5V8H21C21.5304 8 22.0391 8.21071 22.4142 8.58579C22.7893 8.96086 23 9.46957 23 10V20C23 20.5304 22.7893 21.0391 22.4142 21.4142C22.0391 21.7893 21.5304 22 21 22H3C2.46957 22 1.96086 21.7893 1.58579 21.4142C1.21071 21.0391 1 20.5304 1 20V4C1 3.46957 1.21071 2.96086 1.58579 2.58579C1.96086 2.21071 2.46957 2 3 2H15C15.5304 2 16.0391 2.21071 16.4142 2.58579C16.7893 2.96086 17 3.46957 17 4V3Z" stroke="#16c6b0" stroke-width="2" stroke-linecap="round" stroke-linejoin="round"/>
  <path d="M12 12L8 8M12 12L16 16M12 12L16 8M12 12L8 16" stroke="#16c6b0" stroke-width="2" stroke-linecap="round" stroke-linejoin="round"/>
</svg>
