<?xml version="1.0" encoding="UTF-8"?>
<svg version="1.1" xmlns="http://www.w3.org/2000/svg" width="512" height="512">
<path d="M0 0 C0.55075195 0.48758789 1.10150391 0.97517578 1.66894531 1.47753906 C44.49692372 39.63247049 72.00339602 94.80321972 77 152 C77.15716602 155.18501795 77.2091796 158.36615219 77.23828125 161.5546875 C77.2480751 162.44575195 77.25786896 163.33681641 77.26795959 164.25488281 C77.81069627 226.47337753 60.0287983 279.98066211 20 328 C19.46632813 328.65871094 18.93265625 329.31742187 18.3828125 329.99609375 C15.23933002 333.81075222 11.81517391 337.0046646 8.046875 340.19921875 C6.04129492 341.96366993 4.21732187 343.81713667 2.375 345.75 C-24.48151742 372.81470747 -62.91417778 391.35179955 -99.5625 400.3125 C-100.49304199 400.54267822 -101.42358398 400.77285645 -102.38232422 401.01000977 C-119.68819103 405.022346 -136.89614563 406.56032776 -154.625 406.4375 C-156.05667511 406.43243942 -156.05667511 406.43243942 -157.51727295 406.42727661 C-214.22248363 406.13841639 -267.60559078 385.59600528 -310 348 C-310.55075195 347.51241211 -311.10150391 347.02482422 -311.66894531 346.52246094 C-355.7788917 307.22543964 -383.6608625 249.85758297 -387.3515625 190.828125 C-388.92808486 160.9250558 -386.15134022 131.62551828 -377 103 C-376.57509277 101.66557861 -376.57509277 101.66557861 -376.14160156 100.30419922 C-357.75461942 43.83279936 -316.6479269 -4.79969243 -263.94433594 -32.27075195 C-260.66334546 -33.92319455 -257.34498052 -35.48176664 -254 -37 C-253.26313965 -37.33483398 -252.5262793 -37.66966797 -251.76708984 -38.01464844 C-169.93861583 -74.73144845 -71.27342774 -62.04166571 0 0 Z " fill="#272727" transform="translate(411,82)"/>
<path d="M0 0 C4.19172378 1.28929988 8.05949269 3.08603931 12 5 C13.1446875 5.5465625 14.289375 6.093125 15.46875 6.65625 C56.32754684 26.91448319 89.64651631 64.97524249 106.625 107 C108.35223797 112.28041324 108.9078617 117.49889744 108 123 C105.90219061 126.61691275 104.95125774 127.68291409 101 129 C98.38679871 129.22877254 95.79410962 129.4068324 93.17578125 129.5390625 C92.38544998 129.58100739 91.59511871 129.62295227 90.78083801 129.66616821 C84.5986241 129.97140424 78.41912497 130.11781882 72.23046875 130.2109375 C71.32547638 130.22529846 70.42048401 130.23965942 69.48806763 130.25445557 C65.76967164 130.31169524 62.05145095 130.36702029 58.33276367 130.40136719 C55.56913407 130.42890142 52.80629394 130.47465244 50.04296875 130.5234375 C48.78833076 130.5283168 48.78833076 130.5283168 47.50834656 130.53329468 C42.86993038 130.63150865 39.75275347 130.97982742 36 134 C32.75580396 138.86629406 33.22323729 144.28264505 33 150 C32.94102539 151.29599121 32.94102539 151.29599121 32.88085938 152.61816406 C32.27255704 167.54219178 32.16851818 182.1755421 42.3359375 194.24609375 C44.84278012 196.88828234 47.39566152 199.47349657 50.0078125 202.01171875 C51.87817275 203.87841163 53.60026035 205.80123285 55.3125 207.8125 C58.22250451 211.20195605 61.32159942 214.36451453 64.5 217.5 C68.21923182 221.16921693 71.7399053 224.93104252 75.125 228.91015625 C77.47599434 231.53053536 79.98548597 233.9763062 82.5 236.4375 C95.92310459 249.73118071 95.92310459 249.73118071 96.5 258.3125 C96.20089356 278.9209337 71.92215183 301.50221255 58.3190918 315.04711914 C39.03425992 333.76388817 15.61731795 346.89425354 -9.5625 355.9375 C-10.83081665 356.39817871 -10.83081665 356.39817871 -12.12475586 356.86816406 C-17.5802217 358.75993044 -22.2036701 360.20750609 -27.75 357.8125 C-30.52961353 355.57336687 -31.00250538 354.43385671 -32 351 C-32.27353185 347.72587832 -32.23872109 344.47116856 -32.19335938 341.18774414 C-32.18613609 340.21886041 -32.17891281 339.24997667 -32.17147064 338.25173283 C-32.0473826 327.15323807 -31.48995619 316.07806377 -30.90625 304.99609375 C-30.79357332 302.77184406 -30.68148457 300.54756452 -30.56994629 298.32325745 C-30.27865048 292.53653077 -29.98139751 286.75012858 -29.68218994 280.96380615 C-29.20232422 271.67595286 -28.72904926 262.38777265 -28.26091003 253.09932137 C-28.09768589 249.88607599 -27.93021374 246.67307251 -27.7623291 243.46006775 C-25.51374687 217.69823387 -25.51374687 217.69823387 -36.14453125 195.015625 C-38.41341051 192.55090564 -40.74125267 190.16857708 -43.15356445 187.84423828 C-44.95455932 186.0453866 -46.62124985 184.18680323 -48.28125 182.2578125 C-51.77370464 178.23936911 -55.35719917 174.31975217 -59 170.4375 C-59.9590625 169.41366211 -59.9590625 169.41366211 -60.9375 168.36914062 C-66.15357435 162.83215545 -71.50747667 157.44550689 -76.92236328 152.10351562 C-80.0650577 148.99008279 -83.05955381 145.85625608 -85.875 142.4375 C-92.37810633 134.82572159 -101.02786497 130.66248434 -110.96590042 129.71818352 C-114.29437956 129.60775136 -117.61159964 129.58630407 -120.94189453 129.59936523 C-122.82675568 129.58889664 -122.82675568 129.58889664 -124.74969482 129.57821655 C-127.46276177 129.56514061 -130.17521223 129.55731991 -132.88824844 129.55874443 C-137.18438719 129.56079345 -141.48026651 129.54111056 -145.77633667 129.51856995 C-154.11854211 129.47775265 -162.46072636 129.45902578 -170.80300903 129.44239807 C-181.42862971 129.4199841 -192.05418948 129.38636315 -202.67971122 129.33519894 C-206.94426969 129.31536582 -211.20869076 129.30570333 -215.47329354 129.30424678 C-218.75452123 129.30083512 -222.03569605 129.28492662 -225.31689453 129.27124023 C-226.48801788 129.27379318 -227.65914124 129.27634613 -228.86575317 129.27897644 C-235.80124628 129.23554634 -242.39194734 129.1648316 -248.5 125.5 C-251.03619909 121.27300151 -250.86463692 117.79426267 -250 113 C-235.04910436 66.9531521 -199.4736422 29.50052416 -157.046875 7.49609375 C-151.1180416 4.58488453 -145.42374626 3.97848607 -138.953125 5.47265625 C-132.92893303 7.9495451 -128.9908886 13.0508801 -124.8046875 17.8359375 C-122.23854238 20.76791369 -119.53114328 23.51957665 -116.75 26.25 C-113.90157247 29.0626545 -111.16186855 31.89358386 -108.5625 34.9375 C-105.25694813 38.805699 -101.67091292 42.36160327 -98.04931641 45.92895508 C-95.3847073 48.56837452 -92.85377357 51.2574602 -90.4375 54.125 C-80.9539469 65.04341692 -71.57003809 71.21531472 -57 73 C-52.50145433 73.2236011 -48.00519129 73.26960315 -43.50195312 73.29516602 C-42.08030294 73.30675201 -40.65869843 73.32730706 -39.23730469 73.35668945 C-37.1657202 73.39939024 -35.09540737 73.41552708 -33.0234375 73.42578125 C-31.18144775 73.44765503 -31.18144775 73.44765503 -29.30224609 73.4699707 C-25.32551599 72.90400845 -23.75904261 71.8850699 -21 69 C-19.29959271 65.46561742 -18.71636842 62.50401727 -18.56103516 58.60229492 C-18.51403473 57.5473735 -18.4670343 56.49245209 -18.41860962 55.40556335 C-18.37585907 54.27528214 -18.33310852 53.14500092 -18.2890625 51.98046875 C-18.17759646 49.57224182 -18.06560075 47.16403936 -17.953125 44.75585938 C-17.78622271 40.97085905 -17.62493221 37.18580388 -17.47363281 33.40014648 C-17.32375997 29.73852387 -17.15153574 26.07846599 -16.9765625 22.41796875 C-16.93786041 21.29376022 -16.89915833 20.1695517 -16.85928345 19.01127625 C-16.52449327 12.32625702 -15.61192533 7.68826403 -12 2 C-7.97052955 -0.68631363 -4.6540555 -0.65501522 0 0 Z " fill="#FBBD3B" transform="translate(326,79)"/>
<path d="M0 0 C0.55075195 0.48758789 1.10150391 0.97517578 1.66894531 1.47753906 C44.49692372 39.63247049 72.00339602 94.80321972 77 152 C77.15716602 155.18501795 77.2091796 158.36615219 77.23828125 161.5546875 C77.2480751 162.44575195 77.25786896 163.33681641 77.26795959 164.25488281 C77.81069627 226.47337753 60.0287983 279.98066211 20 328 C19.46632813 328.65871094 18.93265625 329.31742187 18.3828125 329.99609375 C15.23933002 333.81075222 11.81517391 337.0046646 8.046875 340.19921875 C6.04129492 341.96366993 4.21732187 343.81713667 2.375 345.75 C-24.48151742 372.81470747 -62.91417778 391.35179955 -99.5625 400.3125 C-100.49304199 400.54267822 -101.42358398 400.77285645 -102.38232422 401.01000977 C-119.68819103 405.022346 -136.89614563 406.56032776 -154.625 406.4375 C-156.05667511 406.43243942 -156.05667511 406.43243942 -157.51727295 406.42727661 C-214.22248363 406.13841639 -267.60559078 385.59600528 -310 348 C-310.55075195 347.51241211 -311.10150391 347.02482422 -311.66894531 346.52246094 C-355.7788917 307.22543964 -383.6608625 249.85758297 -387.3515625 190.828125 C-388.92808486 160.9250558 -386.15134022 131.62551828 -377 103 C-376.57509277 101.66557861 -376.57509277 101.66557861 -376.14160156 100.30419922 C-357.75461942 43.83279936 -316.6479269 -4.79969243 -263.94433594 -32.27075195 C-260.66334546 -33.92319455 -257.34498052 -35.48176664 -254 -37 C-253.26313965 -37.33483398 -252.5262793 -37.66966797 -251.76708984 -38.01464844 C-169.93861583 -74.73144845 -71.27342774 -62.04166571 0 0 Z M-309.5625 33.75 C-348.37802691 76.42794468 -365.69600349 131.98477815 -363 189 C-361.71982013 203.49366632 -359.2117598 218.06211446 -355 232 C-354.76974121 232.77939941 -354.53948242 233.55879883 -354.30224609 234.36181641 C-346.75944583 259.52226977 -334.82241395 285.34879357 -317 305 C-316.01 305.33 -315.02 305.66 -314 306 C-313.28985958 307.31069554 -312.62753477 308.64780832 -312 310 C-310.62194568 311.75363284 -310.62194568 311.75363284 -309.0234375 313.42578125 C-308.43957275 314.05379639 -307.85570801 314.68181152 -307.25415039 315.32885742 C-306.63403076 315.98345947 -306.01391113 316.63806152 -305.375 317.3125 C-304.73618896 317.98966064 -304.09737793 318.66682129 -303.43920898 319.36450195 C-299.16177429 323.86171073 -294.8380825 328.10572621 -290 332 C-288.91492154 332.90832517 -287.8303352 333.81723837 -286.74609375 334.7265625 C-277.97092225 342.0058197 -268.88780559 348.32863567 -259 354 C-258.22446777 354.44730469 -257.44893555 354.89460938 -256.64990234 355.35546875 C-242.68915022 363.29966242 -228.28065354 369.09819535 -213 374 C-212.28634277 374.23299805 -211.57268555 374.46599609 -210.83740234 374.70605469 C-164.8656166 389.28102477 -108.09564555 383.58628747 -65.3125 362 C-63.47159454 361.03048211 -61.64737261 360.03813646 -59.83154297 359.02246094 C-57.89173123 357.93955883 -55.93404292 356.89482337 -53.97265625 355.8515625 C-28.04250471 341.88157373 -5.36946182 321.75703101 12 298 C12.76699219 296.96617187 13.53398437 295.93234375 14.32421875 294.8671875 C20.18406203 286.70635865 25.02441078 278.08245257 29.77075195 269.24072266 C30.79575309 267.37230946 31.87771837 265.53528982 32.97314453 263.70727539 C35.01795431 260.13289897 36.4215413 256.42800643 37.69140625 252.51953125 C37.92278793 251.82542648 38.15416962 251.13132172 38.39256287 250.41618347 C38.87752526 248.95597164 39.35885028 247.49454712 39.83666992 246.03198242 C40.55590401 243.83266957 41.28768961 241.63785128 42.02148438 239.44335938 C49.44702438 217.07251907 52.28045667 195.58982421 52.3125 172.0625 C52.31599457 171.23769135 52.31948914 170.41288269 52.3230896 169.56307983 C52.3954331 138.77192424 45.32170997 108.38294595 31 81 C30.41460449 79.856521 30.41460449 79.856521 29.81738281 78.68994141 C21.62442348 62.77657311 11.7817097 48.97324548 -0.07983398 35.60205078 C-2.77398083 32.54902307 -4.94531474 29.50470599 -7 26 C-13.22993385 18.56174144 -21.29985332 12.8110824 -29 7 C-29.84739746 6.35345459 -29.84739746 6.35345459 -30.71191406 5.69384766 C-61.78949333 -17.89132866 -102.8265129 -33.86404059 -142.0546875 -34.23828125 C-142.90532776 -34.24812042 -143.75596802 -34.25795959 -144.63238525 -34.26809692 C-208.91504275 -34.85782596 -265.01237224 -13.49236569 -309.5625 33.75 Z " fill="#FABA3A" transform="translate(411,82)"/>
<path d="M0 0 C0.55075195 0.48758789 1.10150391 0.97517578 1.66894531 1.47753906 C9.26987104 8.24911248 16.30778992 15.32586293 23 23 C22.67 23.66 22.34 24.32 22 25 C21.20118408 24.17761841 21.20118408 24.17761841 20.38623047 23.33862305 C10.10594796 12.79619002 -0.05276446 2.63229337 -12 -6 C-13.14774758 -6.85334392 -14.29487362 -7.70752439 -15.44140625 -8.5625 C-62.46442766 -43.27169281 -124.52038057 -59.09381574 -182.4765625 -50.39794922 C-183.30929688 -50.26662598 -184.14203125 -50.13530273 -185 -50 C-185.969375 -49.84934082 -186.93875 -49.69868164 -187.9375 -49.54345703 C-232.49372994 -42.36786369 -274.31174042 -22.55347947 -307.24609375 8.45703125 C-309.18388732 10.24639808 -311.11227184 11.9389145 -313.1484375 13.60546875 C-315.40089954 15.49691975 -317.29755826 17.2705781 -319.1875 19.5 C-320.06921875 20.53833984 -320.06921875 20.53833984 -320.96875 21.59765625 C-321.6390625 22.39042969 -322.309375 23.18320313 -323 24 C-323.8146875 24.92683594 -324.629375 25.85367188 -325.46875 26.80859375 C-337.58751718 40.67538786 -347.57769633 55.63317965 -356 72 C-356.58177002 73.12462646 -356.58177002 73.12462646 -357.17529297 74.27197266 C-366.98834131 93.47427732 -373.89748838 113.83549238 -378 135 C-378.16371094 135.82177734 -378.32742188 136.64355469 -378.49609375 137.49023438 C-383.89673884 165.98867976 -382.94785157 197.69676502 -377 226 C-376.81276367 226.90395508 -376.62552734 227.80791016 -376.43261719 228.73925781 C-369.90794787 259.2440589 -357.18856334 291.83019863 -336.640625 315.74609375 C-335.82851563 316.86177734 -335.82851563 316.86177734 -335 318 C-335.33 318.99 -335.66 319.98 -336 321 C-374.04566409 273.72623866 -392.84350978 212.5235353 -387 152 C-385.17455115 135.25560896 -382.13045759 119.04814203 -377 103 C-376.57509277 101.66557861 -376.57509277 101.66557861 -376.14160156 100.30419922 C-357.75461942 43.83279936 -316.6479269 -4.79969243 -263.94433594 -32.27075195 C-260.66334546 -33.92319455 -257.34498052 -35.48176664 -254 -37 C-253.26313965 -37.33483398 -252.5262793 -37.66966797 -251.76708984 -38.01464844 C-169.93861583 -74.73144845 -71.27342774 -62.04166571 0 0 Z " fill="#F8E6C5" transform="translate(411,82)"/>
<path d="M0 0 C1.36915054 0.00456207 1.36915054 0.00456207 2.76596069 0.00921631 C17.23711822 0.08026093 31.1527891 0.93319899 45.25 4.4375 C46.57402832 4.75895996 46.57402832 4.75895996 47.92480469 5.08691406 C74.81482105 11.78747309 106.72714879 22.78129975 126.25 43.4375 C122.93470055 42.1886454 119.98357439 40.7799783 116.984375 38.8984375 C115.78687622 38.1573877 115.78687622 38.1573877 114.56518555 37.40136719 C113.2954187 36.61487793 113.2954187 36.61487793 112 35.8125 C91.14818153 23.16130161 68.33672275 13.78787309 44.25 9.4375 C43.44288574 9.28941895 42.63577148 9.14133789 41.80419922 8.98876953 C17.65393013 4.75803222 -7.68215673 4.78385387 -31.75 9.4375 C-32.55147461 9.58203613 -33.35294922 9.72657227 -34.17871094 9.87548828 C-73.53997716 16.99267358 -108.70580535 36.16479523 -137.75 63.4375 C-138.27609863 63.92959961 -138.80219727 64.42169922 -139.34423828 64.92871094 C-158.51862733 83.01232475 -172.66277483 104.61841332 -183.75 128.4375 C-184.28238281 129.57316406 -184.81476563 130.70882812 -185.36328125 131.87890625 C-192.65420913 148.13748704 -196.88813257 164.89782997 -199.75 182.4375 C-199.976875 183.73558594 -200.20375 185.03367188 -200.4375 186.37109375 C-208.10574034 236.69392099 -193.7877337 289.55071076 -165.75 331.4375 C-165.10417969 332.41976563 -164.45835937 333.40203125 -163.79296875 334.4140625 C-162.45918804 336.43191341 -161.11464252 338.44046216 -159.75 340.4375 C-164.60253179 338.33594849 -166.74662613 334.8986794 -169.75 330.6875 C-170.3174292 329.89400146 -170.8848584 329.10050293 -171.46948242 328.28295898 C-191.83095296 299.13102411 -203.07371228 266.47149088 -207.75 231.4375 C-207.94464844 230.17550781 -208.13929688 228.91351563 -208.33984375 227.61328125 C-212.95312101 189.59267448 -204.18678169 150.59577735 -187.75 116.4375 C-187.40598145 115.72207031 -187.06196289 115.00664062 -186.70751953 114.26953125 C-168.67573667 77.34851012 -138.418994 46.50130913 -102.75 26.4375 C-102.11578125 26.07060059 -101.4815625 25.70370117 -100.828125 25.32568359 C-82.2549878 14.61362671 -61.84660685 7.25051393 -40.75 3.4375 C-40.06796509 3.31361908 -39.38593018 3.18973816 -38.68322754 3.06210327 C-25.740018 0.76684307 -13.13343797 -0.09364359 0 0 Z " fill="#050402" transform="translate(256.75,47.5625)"/>
<path d="M0 0 C10.86523062 10.4036987 18.12637413 23.76884685 25 37 C25.35835938 37.68400879 25.71671875 38.36801758 26.0859375 39.07275391 C41.22793671 68.35345258 47.24480681 99.46336731 47.375 132.125 C47.38664688 133.45594696 47.38664688 133.45594696 47.39852905 134.81378174 C47.48097267 146.78592045 46.54872475 158.19613504 44.37025452 169.97102356 C44.00803337 171.95597754 43.68181182 173.94739373 43.35644531 175.9387207 C37.55064368 211.28166843 18.22694426 245.84406699 -5.99609375 271.84375 C-7.85782767 273.84701924 -9.6173116 275.90573297 -11.375 278 C-30.20869425 299.44472913 -56.0679176 314.77972092 -82 326 C-82.65323242 326.28568848 -83.30646484 326.57137695 -83.97949219 326.86572266 C-131.66967131 347.33080469 -189.37703753 345.79554989 -237.29296875 326.96484375 C-261.52464068 317.0769908 -282.5227301 303.39620524 -302 286 C-303.41925781 284.74703125 -303.41925781 284.74703125 -304.8671875 283.46875 C-306.91871834 281.65368845 -308.96344467 279.83182226 -311 278 C-310.67 277.34 -310.34 276.68 -310 276 C-309.319375 276.65484375 -308.63875 277.3096875 -307.9375 277.984375 C-296.11561498 289.18350927 -283.19900881 298.99142382 -269 307 C-268.27280762 307.41604492 -267.54561523 307.83208984 -266.79638672 308.26074219 C-252.76225174 316.21236915 -238.3477249 322.07667986 -223 327 C-222.28634277 327.23299805 -221.57268555 327.46599609 -220.83740234 327.70605469 C-174.8656166 342.28102477 -118.09564555 336.58628747 -75.3125 315 C-73.47159454 314.03048211 -71.64737261 313.03813646 -69.83154297 312.02246094 C-67.89173123 310.93955883 -65.93404292 309.89482337 -63.97265625 308.8515625 C-38.39671138 295.0724042 -16.17055509 275.40267995 1 252 C1.76828125 250.96488281 2.5365625 249.92976562 3.328125 248.86328125 C9.18497577 240.70259932 14.02525127 232.08088686 18.77075195 223.24072266 C19.79575309 221.37230946 20.87771837 219.53528982 21.97314453 217.70727539 C24.01795431 214.13289897 25.4215413 210.42800643 26.69140625 206.51953125 C26.92278793 205.82542648 27.15416962 205.13132172 27.39256287 204.41618347 C27.87752526 202.95597164 28.35885028 201.49454712 28.83666992 200.03198242 C29.55590401 197.83266957 30.28768961 195.63785128 31.02148438 193.44335938 C38.44702438 171.07251907 41.28045667 149.58982421 41.3125 126.0625 C41.31599457 125.23769135 41.31948914 124.41288269 41.3230896 123.56307983 C41.3953656 92.80065451 34.35569271 62.34257114 20 35 C19.59378418 34.21641113 19.18756836 33.43282227 18.76904297 32.62548828 C13.70427583 22.92002408 8.5326382 13.69920985 1.58203125 5.21484375 C0 3 0 3 0 0 Z " fill="#F9E2B8" transform="translate(421,128)"/>
<path d="M0 0 C12.8854164 7.40005841 22.21727278 18.57369334 26.91796875 32.67578125 C27.06499939 35.11026943 27.13902214 37.54952895 27.16796875 39.98828125 C27.19375 41.28378906 27.21953125 42.57929688 27.24609375 43.9140625 C26.79694894 49.06318693 25.30079939 52.33032441 21.60546875 55.92578125 C16.25257445 59.41138684 11.9342658 60.08966147 5.6953125 59.2734375 C-7.46767137 56.44089667 -18.26172072 48.49414187 -26.08203125 37.67578125 C-31.29573699 29.0425498 -35.47694379 20.02138261 -34.08203125 9.67578125 C-32.31167469 4.38395458 -29.8467639 0.73009705 -25.08203125 -2.32421875 C-16.6368456 -5.13928063 -7.90477752 -3.70699606 0 0 Z " fill="#272727" transform="translate(306.08203125,180.32421875)"/>
<path d="M0 0 C3.90713183 1.62253207 6.75934216 4.27811062 9.8125 7.125 C10.3472998 7.6207251 10.88209961 8.1164502 11.43310547 8.62719727 C15.5896811 12.52469608 19.37084121 16.60638425 23 21 C24.13501953 22.30324219 24.13501953 22.30324219 25.29296875 23.6328125 C40.1167962 40.86982116 59.96137899 66.88682432 59.4296875 90.28125 C59 93 59 93 56.625 96.1875 C52.88325685 98.77108456 51.08893829 99.12388951 46.57568359 99.12597656 C44.87283707 99.13168671 44.87283707 99.13168671 43.1355896 99.13751221 C41.90232941 99.13853943 40.66906921 99.13956665 39.3984375 99.140625 C36.79816836 99.15895788 34.1979077 99.17852863 31.59765625 99.19921875 C27.48968606 99.22951694 23.38201832 99.25232707 19.27392578 99.25048828 C15.31509289 99.24954522 11.35707713 99.28842477 7.3984375 99.328125 C6.17732269 99.3210553 4.95620789 99.3139856 3.6980896 99.30670166 C-3.3634065 99.40713741 -8.65112429 100.08309916 -14 105 C-19.46995055 115.9399011 -17.66772744 137.98809921 -14.375 149.4375 C-13.64390989 151.31637663 -12.8567474 153.17499205 -12 155 C-11.64550781 155.81339844 -11.29101562 156.62679687 -10.92578125 157.46484375 C-7.02559368 165.05606057 -0.6048948 170.65517949 5.44921875 176.5234375 C8.57711176 179.55688832 11.45689357 182.71693567 14.265625 186.046875 C17.01858155 189.1470513 19.99956035 192.0197751 22.94970703 194.93017578 C26.21930837 198.17274631 29.27187267 201.52733158 32.24609375 205.0390625 C34.28458408 207.31817642 36.47407103 209.39094411 38.6875 211.5 C43.84554185 216.64923973 47.036996 221.24057495 47.6875 228.625 C46.60619354 251.43707826 18.51080523 276.70267803 3 291 C-14.93585116 306.66649818 -47.87021497 330.02240895 -72.875 328.8125 C-76 328 -76 328 -78 325 C-76.59814453 324.5978125 -76.59814453 324.5978125 -75.16796875 324.1875 C-45.03100083 315.29621896 -18.97656246 300.5041449 4 279 C4.93714844 278.12859375 5.87429688 277.2571875 6.83984375 276.359375 C19.19284429 264.60386927 37.90126701 245.17920835 40.3359375 227.5703125 C40.34882813 226.76335937 40.36171875 225.95640625 40.375 225.125 C40.40335937 224.32320312 40.43171875 223.52140625 40.4609375 222.6953125 C39.33382523 216.10457126 34.78267997 211.295412 30.3125 206.625 C29.78503174 206.06337158 29.25756348 205.50174316 28.71411133 204.9230957 C24.8938208 200.87607483 20.96733351 196.94186184 17.00390625 193.03515625 C15.12321793 191.12513946 13.36587495 189.16219409 11.625 187.125 C8.73783339 183.75440084 5.65728805 180.61522637 2.5 177.5 C-1.29069404 173.7548148 -4.94744298 169.95141933 -8.3828125 165.875 C-9.98724519 163.96962922 -9.98724519 163.96962922 -11.8046875 162.1875 C-18.93182888 154.84623849 -23.11935538 144.2942897 -23.1328125 134.03515625 C-23.13506836 133.07593262 -23.13732422 132.11670898 -23.13964844 131.12841797 C-23.13481445 130.11666504 -23.12998047 129.10491211 -23.125 128.0625 C-23.12016602 127.03012207 -23.11533203 125.99774414 -23.11035156 124.93408203 C-22.93919262 103.13185616 -22.93919262 103.13185616 -18 98 C-15.24104729 96.3557299 -13.17388483 95.74528454 -9.97607422 95.69702148 C-9.19360321 95.68037949 -8.4111322 95.66373749 -7.60494995 95.64659119 C-6.76336334 95.63817703 -5.92177673 95.62976288 -5.0546875 95.62109375 C-4.17080353 95.60409927 -3.28691956 95.5871048 -2.37625122 95.56959534 C0.45742586 95.51654695 3.29109566 95.47634374 6.125 95.4375 C22.09352218 95.18643475 22.09352218 95.18643475 38.0546875 94.66015625 C38.78688507 94.6393248 39.51908264 94.61849335 40.27346802 94.59703064 C44.62496442 94.38533605 47.52365439 93.66497919 51 91 C53.5240058 85.9519884 52.53297091 79.8306392 51.01171875 74.60546875 C49.49104557 70.65171848 47.82085116 66.82308305 46 63 C45.46922852 61.8847998 45.46922852 61.8847998 44.92773438 60.74707031 C34.69341381 39.63326043 20.84097867 21.36958327 4.06274414 5.04785156 C2.6930823 3.71421701 1.34426751 2.35922756 0 1 C0 0.67 0 0.34 0 0 Z " fill="#060502" transform="translate(381,113)"/>
<path d="M0 0 C9.91721501 4.54356987 18.30159439 14.57643471 25.25 22.75 C28.63032068 26.70980423 32.30243875 30.3404241 36 34 C40.21339389 38.17457336 44.33830873 42.34523582 48.16015625 46.88671875 C49.69212201 48.64636519 51.2582783 50.33521933 52.87109375 52.01953125 C64.8400662 64.56365055 71.30667871 75.31842578 71 93 C70.85290648 96.87018823 70.63779863 100.73512546 70.4140625 104.6015625 C70.32217903 106.24895416 70.32217903 106.24895416 70.22843933 107.92962646 C70.09730838 110.27775226 69.96503039 112.62581424 69.83169556 114.97381592 C69.62219329 118.6745792 69.417201 122.37556651 69.21362305 126.07666016 C68.70235147 135.36980628 68.19100718 144.66294355 67.66162109 153.95507812 C66.38933504 176.33129442 65.70290266 198.5851482 66 221 C63.6875 220.875 63.6875 220.875 61 220 C57.48396288 214.81203956 57.60453906 210.14651876 57.74414062 204.12524414 C57.75587563 203.16087213 57.76761063 202.19650011 57.77970123 201.2029047 C57.95414493 190.12336852 58.51098617 179.06017246 59.09375 167.99609375 C59.20642668 165.77184406 59.31851543 163.54756452 59.43005371 161.32325745 C59.72134952 155.53653077 60.01860249 149.75012858 60.31781006 143.96380615 C60.79767578 134.67595286 61.27095074 125.38777265 61.73908997 116.09932137 C61.90231411 112.88607599 62.06978626 109.67307251 62.2376709 106.46006775 C64.48625313 80.69823387 64.48625313 80.69823387 53.85546875 58.015625 C51.58658949 55.55090564 49.25874733 53.16857708 46.84643555 50.84423828 C45.04544068 49.0453866 43.37875015 47.18680323 41.71875 45.2578125 C38.22629536 41.23936911 34.64280083 37.31975217 31 33.4375 C30.360625 32.75494141 29.72125 32.07238281 29.0625 31.36914062 C23.85051079 25.83649192 18.4935853 20.46224065 13.09521484 15.11230469 C2.07909427 4.15818855 2.07909427 4.15818855 0 0 Z " fill="#F8E4C1" transform="translate(236,216)"/>
<path d="M0 0 C1.89698812 0.95694766 3.73855239 2.02229609 5.56640625 3.10546875 C5.23640625 3.76546875 4.90640625 4.42546875 4.56640625 5.10546875 C3.82519531 5.00105469 3.08398438 4.89664063 2.3203125 4.7890625 C-17.05611447 3.29491942 -35.8453039 20.27410017 -49.80859375 32.16796875 C-72.62544016 52.07483123 -90.16906006 76.55603889 -101.49609375 104.66796875 C-101.79539795 105.39346924 -102.09470215 106.11896973 -102.40307617 106.86645508 C-104.30955958 111.81669261 -104.7137858 115.80566585 -104.43359375 121.10546875 C-106.80859375 120.79296875 -106.80859375 120.79296875 -109.43359375 120.10546875 C-112.39067728 115.66984345 -112.24797335 112.3187807 -111.43359375 107.10546875 C-96.59602644 61.06607178 -60.84020528 23.57122779 -18.48046875 1.6015625 C-12.57095227 -1.30016162 -6.32162871 -2.32368054 0 0 Z " fill="#FBEDD2" transform="translate(187.43359375,84.89453125)"/>
<path d="M0 0 C8.13942065 2.58025172 15.61762437 6.77111947 23 11 C22.34 11.33 21.68 11.66 21 12 C17.70517355 10.58254606 14.49412949 9.06481395 11.29296875 7.44921875 C6.02664124 4.96920335 2.68870424 4.52117542 -3 6 C-6.05464116 8.07244143 -6.83020934 9.34709363 -7.7578125 12.9140625 C-7.93957031 14.75097656 -7.93957031 14.75097656 -8.125 16.625 C-8.1971875 17.3257666 -8.269375 18.0265332 -8.34375 18.74853516 C-8.86529083 24.25506212 -9.17617823 29.77544218 -9.4921875 35.296875 C-9.53465607 36.03710907 -9.57712463 36.77734314 -9.62088013 37.54000854 C-9.83358888 41.29382598 -10.03427338 45.04774281 -10.21533203 48.80322266 C-11.37815585 71.87420092 -11.37815585 71.87420092 -17 77 C-20.02144445 78.82106205 -22.23653107 79.2480978 -25.74609375 79.23046875 C-27.11604492 79.2291394 -27.11604492 79.2291394 -28.51367188 79.2277832 C-29.47853516 79.21448975 -30.44339844 79.20119629 -31.4375 79.1875 C-32.42943359 79.1774292 -33.42136719 79.1673584 -34.44335938 79.15698242 C-37.29604317 79.11901806 -40.14775315 79.06203966 -43 79 C-44.26972656 78.98195313 -45.53945313 78.96390625 -46.84765625 78.9453125 C-55.42508342 78.58393391 -65.84237456 76.75200344 -72.40234375 70.83203125 C-73.19318359 69.92517578 -73.19318359 69.92517578 -74 69 C-73.35933594 69.20496094 -72.71867188 69.40992188 -72.05859375 69.62109375 C-71.19363281 69.89050781 -70.32867187 70.15992188 -69.4375 70.4375 C-68.59058594 70.70433594 -67.74367188 70.97117187 -66.87109375 71.24609375 C-59.18124884 73.26533194 -51.39442326 73.250364 -43.50195312 73.29516602 C-42.08030294 73.30675201 -40.65869843 73.32730706 -39.23730469 73.35668945 C-37.1657202 73.39939024 -35.09540737 73.41552708 -33.0234375 73.42578125 C-31.18144775 73.44765503 -31.18144775 73.44765503 -29.30224609 73.4699707 C-25.32551599 72.90400845 -23.75904261 71.8850699 -21 69 C-19.29959271 65.46561742 -18.71636842 62.50401727 -18.56103516 58.60229492 C-18.51403473 57.5473735 -18.4670343 56.49245209 -18.41860962 55.40556335 C-18.37585907 54.27528214 -18.33310852 53.14500092 -18.2890625 51.98046875 C-18.17759646 49.57224182 -18.06560075 47.16403936 -17.953125 44.75585938 C-17.78622271 40.97085905 -17.62493221 37.18580388 -17.47363281 33.40014648 C-17.32375997 29.73852387 -17.15153574 26.07846599 -16.9765625 22.41796875 C-16.93786041 21.29376022 -16.89915833 20.1695517 -16.85928345 19.01127625 C-16.52449327 12.32625702 -15.61192533 7.68826403 -12 2 C-7.973758 -0.68416133 -4.65081951 -0.66440279 0 0 Z " fill="#F9E9CC" transform="translate(326,79)"/>
<path d="M0 0 C17.05520425 -0.07018504 34.1103632 -0.12303458 51.16567898 -0.15543652 C59.08535538 -0.17088342 67.00494187 -0.19193113 74.92456055 -0.22631836 C81.82999216 -0.25628758 88.73535862 -0.27559082 95.64085346 -0.28226548 C99.29484027 -0.28616505 102.94864077 -0.29528372 106.60256767 -0.31719017 C110.68882266 -0.34148821 114.77475692 -0.34196518 118.86108398 -0.34057617 C120.06302399 -0.351362 121.26496399 -0.36214783 122.50332642 -0.3732605 C129.3300507 -0.34819162 134.65292991 0.44877241 141 3 C141 3.66 141 4.32 141 5 C117.89375679 4.75241065 94.78772226 4.49097344 71.68193054 4.20410156 C69.75133278 4.1801615 67.82073484 4.15623553 65.89013672 4.13232422 C64.48700902 4.11494265 64.48700902 4.11494265 63.05553532 4.09720993 C56.62761606 4.01825526 50.19964359 3.94763187 43.77158546 3.88109493 C38.21443549 3.82274341 32.65757574 3.74980384 27.10070801 3.66915894 C24.91530615 3.63981012 22.72982856 3.61562828 20.54431152 3.59671021 C17.57734181 3.57024301 14.61119446 3.52593006 11.64453125 3.4765625 C10.79556778 3.47334488 9.94660431 3.47012726 9.07191467 3.46681213 C3.39067894 3.34375732 3.39067894 3.34375732 1.26567078 1.47396851 C0.84799942 0.9875589 0.43032806 0.50114929 0 0 Z " fill="#030303" transform="translate(86,208)"/>
<path d="M0 0 C11.13157081 3.66303975 18.16521217 13.9111626 23.4765625 23.73828125 C27.26845944 31.85682982 29.04968561 40.78420922 26.16015625 49.546875 C23.77446411 53.820236 20.73593228 56.48342916 16.2265625 58.375 C7.96070588 60.69524046 0.60541079 58.49311494 -7 55 C-8.68166153 54.02542713 -10.35295148 53.0319927 -12 52 C-9.17867989 50.58933995 -7.89718672 51.53425131 -4.9375 52.5 C1.9158209 54.44655842 6.95819585 54.52090207 13.375 51.3125 C17.26171495 47.88848921 18.79924351 44.62775534 19.43359375 39.484375 C19.44767699 26.020795 15.74218132 17.34788809 7 7 C4.75159349 4.84051352 2.4477776 2.93782393 0 1 C0 0.67 0 0.34 0 0 Z " fill="#F9E7C6" transform="translate(313,185)"/>
<path d="M0 0 C1.3303125 0.7425 1.3303125 0.7425 2.6875 1.5 C2.6875 2.16 2.6875 2.82 2.6875 3.5 C1.67429687 3.45359375 0.66109375 3.4071875 -0.3828125 3.359375 C-1.73434532 3.32183242 -3.08591028 3.28543494 -4.4375 3.25 C-5.10265625 3.21648437 -5.7678125 3.18296875 -6.453125 3.1484375 C-11.60596769 3.04740137 -14.41504669 4.17869196 -18.3125 7.5 C-22.94875951 13.30514697 -22.04467818 20.49898195 -21.3125 27.5 C-18.8108431 36.883993 -13.36634907 45.80953103 -6.3125 52.5 C-14.76465289 50.19486739 -19.50241726 42.19601005 -23.8046875 35.14453125 C-28.00594001 27.77601325 -30.47243184 20.10282783 -29.3125 11.5 C-27.54214344 6.20817333 -25.07723265 2.5543158 -20.3125 -0.5 C-14.09233848 -2.57338717 -6.06873167 -2.6418298 0 0 Z " fill="#0A0703" transform="translate(301.3125,178.5)"/>
<path d="M0 0 C1.68036601 3.13476138 2.80873175 6.27623967 3.8828125 9.6640625 C11.9884592 34.84458464 21.85783795 60.37592729 39.359375 80.74609375 C39.90078125 81.48988281 40.4421875 82.23367188 41 83 C40.505 84.485 40.505 84.485 40 86 C22.3760853 64.10134854 9.21060764 39.54658517 0 13 C-0.30147949 12.17725586 -0.60295898 11.35451172 -0.91357422 10.50683594 C-1.19861816 9.70793945 -1.48366211 8.90904297 -1.77734375 8.0859375 C-2.03636475 7.37228027 -2.29538574 6.65862305 -2.56225586 5.92333984 C-3 4 -3 4 -2 1 C-2 1.66 -2 2.32 -2 3 C-1.34 3 -0.68 3 0 3 C0 2.01 0 1.02 0 0 Z " fill="#EDD09C" transform="translate(35,317)"/>
<path d="M0 0 C15.43792223 14.78215208 32.83953493 42.54444841 36 64 C35.505 65.485 35.505 65.485 35 67 C35.27769908 69.3406065 35.60539977 71.67624308 36 74 C33.3523926 71.3523926 32.81686254 68.44116734 31.8125 64.9375 C25.3777554 43.72384645 15.76821117 22.19736674 1.51171875 5.07421875 C0 3 0 3 0 0 Z " fill="#ECC276" transform="translate(421,128)"/>
<path d="M0 0 C6.39434198 2.80727209 10.84430357 8.60318445 15.3125 13.8125 C18.22250451 17.20195605 21.32159942 20.36451453 24.5 23.5 C27.61579869 26.57389855 30.65877278 29.66702191 33.5 33 C38.02177961 38.29913156 43.04395768 43.11226454 48 48 C49.3344505 49.33221523 50.66822703 50.66510813 52 52 C51.505 52.99 51.505 52.99 51 54 C44.49829791 48.44400003 38.32209983 42.74857724 32.75 36.25 C29.81720378 32.8416152 26.69927099 29.65600836 23.5 26.5 C19.7900028 22.83990189 16.2741811 19.09084423 12.90234375 15.1171875 C9.93993685 11.82021719 6.75378616 8.74618103 3.5546875 5.6796875 C2.33348328 4.48926994 1.16206124 3.24821768 0 2 C0 1.34 0 0.68 0 0 Z " fill="#130E06" transform="translate(196,91)"/>
<path d="M0 0 C4.40172572 3.13530743 8.50157119 6.41861078 12.4375 10.125 C16.90592083 14.20606547 21.63050305 17.75953114 26.5625 21.25 C27.25851318 21.74516113 27.95452637 22.24032227 28.67163086 22.75048828 C33.6008744 26.18922659 38.69814787 29.17296482 44 32 C43.34 32.99 42.68 33.98 42 35 C29.90644323 27.18243766 18.88477164 18.74128652 8.23828125 9.01171875 C6.32704039 7.29393682 4.38210088 5.66536043 2.375 4.0625 C1.59125 3.381875 0.8075 2.70125 0 2 C0 1.34 0 0.68 0 0 Z " fill="#F4DFBA" transform="translate(110,404)"/>
<path d="M0 0 C8.07233591 6.66845141 15.39422796 14.01636358 22.1953125 21.97265625 C25.61943288 25.81923304 29.3225033 29.39755425 33 33 C32.34 33.66 31.68 34.32 31 35 C27.08777091 31.17922562 23.23810867 27.34998541 19.6875 23.1875 C16.74028754 19.75247306 13.59435071 16.55256879 10.375 13.375 C3.07472461 6.13497448 3.07472461 6.13497448 0 2 C0 1.34 0 0.68 0 0 Z " fill="#120D05" transform="translate(373,277)"/>
<path d="M0 0 C3.88971086 3.68755743 7.04332497 7.5600136 10.125 11.9375 C10.55425781 12.53240234 10.98351562 13.12730469 11.42578125 13.74023438 C13.99144018 17.35189271 16.11809318 20.9717354 18 25 C17.34 25.99 16.68 26.98 16 28 C15.43152344 26.94941406 14.86304688 25.89882812 14.27734375 24.81640625 C10.36915886 17.68382017 6.56868162 10.87859171 1.21484375 4.69921875 C0 3 0 3 0 0 Z " fill="#F4CC81" transform="translate(421,128)"/>
<path d="M0 0 C4.51697977 3.68817614 6.39887178 8.56526447 8.75 13.75 C9.16121094 14.63816406 9.57242187 15.52632812 9.99609375 16.44140625 C11.00530234 18.6241132 12.00626334 20.81021666 13 23 C12.01 23 11.02 23 10 23 C9.67 21.35 9.34 19.7 9 18 C8.34 18 7.68 18 7 18 C5.82006797 15.94414903 4.65621545 13.88163459 3.5 11.8125 C2.8503125 10.66394531 2.200625 9.51539063 1.53125 8.33203125 C0.06830321 5.14862918 -0.36140832 3.42692535 0 0 Z " fill="#F6D69A" transform="translate(438,153)"/>
<path d="M0 0 C0.66 0.33 1.32 0.66 2 1 C-4.93 7.93 -11.86 14.86 -19 22 C-19.66 21.67 -20.32 21.34 -21 21 C-14.47429312 13.40315437 -7.47007318 6.64849153 0 0 Z " fill="#D7BB86" transform="translate(105,78)"/>
<path d="M0 0 C4.46273645 1.49095968 6.2011309 4.98758982 8.5 8.8125 C9.2576735 10.04986099 10.01805501 11.28556822 10.78125 12.51953125 C11.14605469 13.11330566 11.51085937 13.70708008 11.88671875 14.31884766 C13.11587029 16.24711355 13.11587029 16.24711355 15.34375 18.76171875 C15.8903125 19.50035156 16.436875 20.23898437 17 21 C16.67 21.99 16.34 22.98 16 24 C0 3.54150198 0 3.54150198 0 0 Z " fill="#DFBA79" transform="translate(59,379)"/>
<path d="M0 0 C2.80041057 5.00073317 4.34821126 10.25451416 4 16 C3.01 16 2.02 16 1 16 C0.30151736 14.06643218 -0.38344814 12.12797702 -1.0625 10.1875 C-1.44535156 9.10855469 -1.82820313 8.02960938 -2.22265625 6.91796875 C-3 4 -3 4 -2 1 C-2 1.66 -2 2.32 -2 3 C-1.34 3 -0.68 3 0 3 C0 2.01 0 1.02 0 0 Z " fill="#F4DAAD" transform="translate(35,317)"/>
<path d="M0 0 C4.62470289 3.29413194 8.93772595 6.78666545 13.125 10.625 C16.59622151 13.80159622 19.978374 16.56585795 24 19 C23.01 19.33 22.02 19.66 21 20 C18.65234375 18.4453125 18.65234375 18.4453125 15.9375 16.125 C14.97070312 15.30128906 14.00390625 14.47757812 13.0078125 13.62890625 C11.51894531 12.32759766 11.51894531 12.32759766 10 11 C9.02804688 10.16339844 8.05609375 9.32679688 7.0546875 8.46484375 C1.89684815 3.94622381 1.89684815 3.94622381 0 2 C0 1.34 0 0.68 0 0 Z " fill="#EFDBB7" transform="translate(110,404)"/>
<path d="M0 0 C4.3573226 1.47130373 7.71934134 3.83080615 11.3125 6.625 C11.86228516 7.04523438 12.41207031 7.46546875 12.97851562 7.8984375 C14.32292168 8.92720039 15.66201413 9.9629009 17 11 C13.81579155 11 13.03619037 10.63765561 10.42578125 9.03125 C9.75869141 8.62519531 9.09160156 8.21914062 8.40429688 7.80078125 C7.71400391 7.37152344 7.02371094 6.94226563 6.3125 6.5 C5.61060547 6.07074219 4.90871094 5.64148438 4.18554688 5.19921875 C2.45340009 4.13872072 0.72621518 3.07012602 -1 2 C-0.67 1.34 -0.34 0.68 0 0 Z " fill="#120E06" transform="translate(366,79)"/>
<path d="M0 0 C4.39131785 1.51077449 6.31736792 4.91662276 8.75 8.625 C9.16121094 9.23601562 9.57242188 9.84703125 9.99609375 10.4765625 C11.00551256 11.97895328 12.0038647 13.48876909 13 15 C12.01 15 11.02 15 10 15 C8.13319997 12.91271178 6.47058144 10.8673127 4.8125 8.625 C4.34908203 8.02171875 3.88566406 7.4184375 3.40820312 6.796875 C0 2.27937454 0 2.27937454 0 0 Z " fill="#130F09" transform="translate(84,372)"/>
<path d="M0 0 C4.06963335 1.489539 5.32270828 3.7475392 7.3125 7.5 C8.11107422 8.96953125 8.11107422 8.96953125 8.92578125 10.46875 C9.28027344 11.3040625 9.63476562 12.139375 10 13 C9.67 13.66 9.34 14.32 9 15 C4.82093105 11.44005237 2.31440569 6.91336946 0 2 C0 1.34 0 0.68 0 0 Z " fill="#E2C288" transform="translate(51,365)"/>
<path d="M0 0 C1.86889895 2.80334843 3.27024908 5.51277094 4.6875 8.5625 C5.14511719 9.53316406 5.60273437 10.50382812 6.07421875 11.50390625 C6.37972656 12.32761719 6.68523438 13.15132813 7 14 C6.67 14.66 6.34 15.32 6 16 C2.99908681 13.4277887 1.47391468 10.64969348 0 7 C-0.1875 3.125 -0.1875 3.125 0 0 Z " fill="#F0D3A0" transform="translate(46,350)"/>
<path d="M0 0 C3.89917968 1.61537444 6.71293772 4.27924873 9.75 7.125 C10.25660156 7.59292969 10.76320313 8.06085938 11.28515625 8.54296875 C12.52719141 9.69126541 13.76411494 10.84508672 15 12 C14.34 12.66 13.68 13.32 13 14 C10.83031809 11.85714108 8.66416525 9.71091768 6.5 7.5625 C5.87996094 6.95083984 5.25992187 6.33917969 4.62109375 5.70898438 C4.03457031 5.12568359 3.44804687 4.54238281 2.84375 3.94140625 C2.02680664 3.13231812 2.02680664 3.13231812 1.19335938 2.30688477 C0 1 0 1 0 0 Z " fill="#18130A" transform="translate(381,113)"/>
<path d="M0 0 C1.9375 0.3125 1.9375 0.3125 4 1 C5.1577506 4.47325181 5.06866652 7.36067448 5 11 C2.03947516 7.63576723 1.07710178 4.30840713 0 0 Z " fill="#E4C58F" transform="translate(41,344)"/>
<path d="M0 0 C2 2 2 2 2 5 C3.32 5.33 4.64 5.66 6 6 C6 8.97 6 11.94 6 15 C3.75848118 12.75848118 3.03698675 10.9932888 1.875 8.0625 C1.52179688 7.18722656 1.16859375 6.31195313 0.8046875 5.41015625 C0 3 0 3 0 0 Z " fill="#EBBF6E" transform="translate(446,171)"/>
<path d="M0 0 C3.21043882 1.38188453 5.04936365 2.92421903 7.25 5.625 C8.03117188 6.57246094 8.03117188 6.57246094 8.828125 7.5390625 C9.40820312 8.26222656 9.40820312 8.26222656 10 9 C7 9 7 9 5.17578125 7.5390625 C4.56089844 6.90742187 3.94601563 6.27578125 3.3125 5.625 C2.68988281 4.99851562 2.06726563 4.37203125 1.42578125 3.7265625 C0 2 0 2 0 0 Z " fill="#1F1709" transform="translate(196,91)"/>
<path d="M0 0 C3.41742782 1.13914261 4.12880598 2.06390308 6.25 4.875 C6.79140625 5.57367188 7.3328125 6.27234375 7.890625 6.9921875 C8.25671875 7.65476562 8.6228125 8.31734375 9 9 C8.67 9.99 8.34 10.98 8 12 C6.66081194 10.37982158 5.3288031 8.75370657 4 7.125 C3.2575 6.22007812 2.515 5.31515625 1.75 4.3828125 C0 2 0 2 0 0 Z " fill="#D6AE66" transform="translate(67,391)"/>
<path d="M0 0 C4.13621084 3.3810038 7.81316569 6.66590534 11 11 C7.56247993 9.4722133 4.81046312 7.49818944 2 5 C2 4.34 2 3.68 2 3 C1.01 2.67 0.02 2.34 -1 2 C-0.67 1.34 -0.34 0.68 0 0 Z " fill="#8B6722" transform="translate(395,100)"/>
<path d="M0 0 C1.125 1.625 1.125 1.625 2 4 C1.125 7.25 1.125 7.25 0 10 C-2.12508244 6.81237635 -2.5020163 4.73487777 -3 1 C-2.67 1.66 -2.34 2.32 -2 3 C-1.34 3 -0.68 3 0 3 C0 2.01 0 1.02 0 0 Z " fill="#E4C48A" transform="translate(35,317)"/>
<path d="M0 0 C3.07360743 3.07360743 3.57862333 3.89157749 4 8 C3.67 8.66 3.34 9.32 3 10 C2.34 10 1.68 10 1 10 C0.67 6.7 0.34 3.4 0 0 Z " fill="#FCE1B2" transform="translate(451,179)"/>
<path d="M0 0 C4.29 0.99 8.58 1.98 13 3 C13 3.33 13 3.66 13 4 C10.07406105 4.85637238 7.91825712 5.38673104 5.04296875 4.17578125 C3.32488268 3.17852152 1.65798613 2.09427085 0 1 C0 0.67 0 0.34 0 0 Z " fill="#EED4A8" transform="translate(301,236)"/>
<path d="M0 0 C3.53586014 3.17320782 5.58578031 5.16743695 6 10 C5.38125 9.21625 4.7625 8.4325 4.125 7.625 C2.10141339 5.03162353 2.10141339 5.03162353 0 3 C0 2.01 0 1.02 0 0 Z " fill="#F3C66F" transform="translate(421,128)"/>
<path d="M0 0 C1.31611677 0.95336021 2.62778961 1.91285774 3.9375 2.875 C4.66839844 3.40867187 5.39929688 3.94234375 6.15234375 4.4921875 C8 6 8 6 9 8 C5.08158173 6.69386058 2.67359191 5.16870152 0 2 C0 1.34 0 0.68 0 0 Z " fill="#E0C699" transform="translate(110,404)"/>
<path d="M0 0 C4.43458973 1.3937282 6.87378374 3.60582235 10 7 C6.433255 7 5.89456323 6.36308045 3.3125 4.0625 C2.68988281 3.51722656 2.06726563 2.97195312 1.42578125 2.41015625 C0.95527344 1.94480469 0.48476563 1.47945312 0 1 C0 0.67 0 0.34 0 0 Z " fill="#F6DDAF" transform="translate(313,185)"/>
</svg>
