<?xml version="1.0" encoding="UTF-8"?>
<svg width="24" height="24" viewBox="0 0 24 24" fill="none" xmlns="http://www.w3.org/2000/svg">
  <circle cx="12" cy="12" r="3" stroke="#16c6b0" stroke-width="2"/>
  <path d="M19.4 15C19.1277 15.6171 18.7583 16.1851 18.3 16.68L19.5 18.5C19.5 18.5 18.5 19.5 17 18.5L15.68 17.3C15.1851 17.7583 14.6171 18.1277 14 18.4V20.5C14 20.5 12 21 12 21C12 21 10 20.5 10 20.5V18.4C9.38291 18.1277 8.81491 17.7583 8.32 17.3L7 18.5C5.5 19.5 4.5 18.5 4.5 18.5L5.7 16.68C5.24167 16.1851 4.87229 15.6171 4.6 15H2.5C2.5 15 2 13 2 12C2 11 2.5 9 2.5 9H4.6C4.87229 8.38291 5.24167 7.81491 5.7 7.32L4.5 5.5C4.5 5.5 5.5 4.5 7 5.5L8.32 6.7C8.81491 6.24167 9.38291 5.87229 10 5.6V3.5C10 3.5 12 3 12 3C12 3 14 3.5 14 3.5V5.6C14.6171 5.87229 15.1851 6.24167 15.68 6.7L17 5.5C18.5 4.5 19.5 5.5 19.5 5.5L18.3 7.32C18.7583 7.81491 19.1277 8.38291 19.4 9H21.5C21.5 9 22 11 22 12C22 13 21.5 15 21.5 15H19.4Z" stroke="#16c6b0" stroke-width="2" stroke-linecap="round" stroke-linejoin="round"/>
</svg>
